<?xml version="1.0" encoding="UTF-8" standalone="no"?>
<svg
   xmlns:dc="http://purl.org/dc/elements/1.1/"
   xmlns:cc="http://creativecommons.org/ns#"
   xmlns:rdf="http://www.w3.org/1999/02/22-rdf-syntax-ns#"
   xmlns:svg="http://www.w3.org/2000/svg"
   xmlns="http://www.w3.org/2000/svg"
   xmlns:sodipodi="http://sodipodi.sourceforge.net/DTD/sodipodi-0.dtd"
   xmlns:inkscape="http://www.inkscape.org/namespaces/inkscape"
   inkscape:export-ydpi="1966"
   inkscape:export-xdpi="1966"
   inkscape:export-filename="C:\Users\Максим\YandexDisk\UnityProjects\AsteroidsDemo\Assets\Images\Ships.png"
   sodipodi:docname="Ships.svg"
   inkscape:version="1.0 (4035a4fb49, 2020-05-01)"
   width="200.0px"
   height="200.0px"
   viewBox="0 0 200.0 200.0"
   version="1.1"
   id="SVGRoot">
  <defs
     id="defs833" />
  <sodipodi:namedview
     inkscape:guide-bbox="true"
     showguides="true"
     inkscape:window-maximized="0"
     inkscape:window-y="0"
     inkscape:window-x="32"
     inkscape:window-height="1030"
     inkscape:window-width="1722"
     showgrid="true"
     inkscape:document-rotation="0"
     inkscape:current-layer="layer1"
     inkscape:document-units="px"
     inkscape:cy="110.27422"
     inkscape:cx="100.48244"
     inkscape:zoom="3.959798"
     inkscape:pageshadow="2"
     inkscape:pageopacity="0.0"
     borderopacity="1.0"
     bordercolor="#666666"
     pagecolor="#ffffff"
     id="base">
    <inkscape:grid
       type="xygrid"
       id="grid1403" />
    <sodipodi:guide
       id="guide1410"
       orientation="0,-1"
       position="100,100" />
    <sodipodi:guide
       id="guide1412"
       orientation="1,0"
       position="100,100" />
  </sodipodi:namedview>
  <metadata
     id="metadata836">
    <rdf:RDF>
      <cc:Work
         rdf:about="">
        <dc:format>image/svg+xml</dc:format>
        <dc:type
           rdf:resource="http://purl.org/dc/dcmitype/StillImage" />
        <dc:title></dc:title>
      </cc:Work>
    </rdf:RDF>
  </metadata>
  <g
     id="layer1"
     inkscape:groupmode="layer"
     inkscape:label="Слой 1">
    <path
       id="path1414"
       d="m 50,10 -10,5 -5,25 5,10 v 5 l -20,-5 -5,5 5,10 15,10 5,-5 v 10 l 5,5 V 75 l 5,-5 5,5 v 10 l 5,-5 V 70 l 5,5 15,-10 5,-10 -5,-5 -20,5 V 50 L 65,40 60,15 Z"
       style="fill:#ffffff;stroke:#e6e6e6;stroke-width:2;stroke-linecap:butt;stroke-linejoin:miter;stroke-opacity:1;stroke-miterlimit:4;stroke-dasharray:none" />
    <path
       id="path1416"
       d="m 150,30 -20,20 20,20 20,-20 z"
       style="fill:#ffffff;stroke:#e6e6e6;stroke-width:2;stroke-linecap:butt;stroke-linejoin:miter;stroke-opacity:1;stroke-miterlimit:4;stroke-dasharray:none" />
    <path
       style="fill:#cccccc;stroke:#808080;stroke-width:2;stroke-linecap:butt;stroke-linejoin:miter;stroke-opacity:1;stroke-miterlimit:4;stroke-dasharray:none"
       d="m 50,105 -20,20 20,20 20,-20 z"
       id="path1416-0" />
    <path
       id="path1416-0-3"
       d="m 75,130 -20,20 20,20 20,-20 z"
       style="fill:#cccccc;stroke:#808080;stroke-width:2;stroke-linecap:butt;stroke-linejoin:miter;stroke-opacity:1;stroke-miterlimit:4;stroke-dasharray:none" />
    <path
       id="path1416-0-8"
       d="m 50,155 -20,20 20,20 20,-20 z"
       style="fill:#cccccc;stroke:#808080;stroke-width:2;stroke-linecap:butt;stroke-linejoin:miter;stroke-opacity:1;stroke-miterlimit:4;stroke-dasharray:none" />
    <path
       id="path1416-0-5"
       d="M 25,130 5,150 25,170 45,150 Z"
       style="fill:#cccccc;stroke:#808080;stroke-width:2;stroke-linecap:butt;stroke-linejoin:miter;stroke-opacity:1;stroke-miterlimit:4;stroke-dasharray:none" />
    <path
       id="path1416-0-6"
       d="m 50,120 -30,30 30,30 30,-30 z"
       style="fill:#ffffff;stroke:#e6e6e6;stroke-width:3;stroke-linecap:butt;stroke-linejoin:miter;stroke-opacity:1;stroke-miterlimit:4;stroke-dasharray:none" />
    <path
       id="path1466"
       d="m 150,110 -10,5 v 10 l -10,5 -5,10 h -10 l -5,10 5,10 h 10 l 5,10 10,5 v 10 l 10,5 10,-5 v -10 l 10,-5 5,-10 h 10 l 5,-10 -5,-10 h -10 l -5,-10 -10,-5 v -10 z"
       style="fill:#ffffff;stroke:#e6e6e6;stroke-width:2;stroke-linecap:butt;stroke-linejoin:miter;stroke-miterlimit:4;stroke-dasharray:none;stroke-opacity:1" />
    <path
       id="path1468"
       d="m 150,140 -10,10 10,10 10,-10 z"
       style="fill:#cccccc;stroke:#cccccc;stroke-width:1px;stroke-linecap:butt;stroke-linejoin:miter;stroke-opacity:1" />
    <path
       id="path1472"
       d="m 50,25 -2,1 -2,8 1,5 3,1 3,-1 1,-5 -2,-8 z"
       style="fill:#cccccc;stroke:#cccccc;stroke-width:1px;stroke-linecap:butt;stroke-linejoin:miter;stroke-opacity:1" />
  </g>
</svg>
